<?xml version="1.0" encoding="UTF-8"?>
<svg width="19px" height="18px" viewBox="0 0 19 18" version="1.1" xmlns="http://www.w3.org/2000/svg" xmlns:xlink="http://www.w3.org/1999/xlink">
    <title>Combined Shape</title>
    <g id="Page-1" stroke="none" stroke-width="1" fill="none" fill-rule="evenodd">
        <g id="open-menu" transform="translate(-532.000000, -147.000000)" fill="#13241D">
            <g id="close" transform="translate(510.338359, 125.165132)">
                <path d="M31.1616408,19.9116408 C32.3661286,19.9116408 33.3425589,20.888071 33.3425589,22.0925589 L33.3416408,28.9806408 L40.2307226,28.9807226 C41.4352105,28.9807226 42.4116408,29.9571529 42.4116408,31.1616408 C42.4116408,32.3661286 41.4352105,33.3425589 40.2307226,33.3425589 L33.3416408,33.3416408 L33.3425589,40.2307226 C33.3425589,41.4352105 32.3661286,42.4116408 31.1616408,42.4116408 C29.9571529,42.4116408 28.9807226,41.4352105 28.9807226,40.2307226 L28.9806408,33.3416408 L22.0925589,33.3425589 C20.888071,33.3425589 19.9116408,32.3661286 19.9116408,31.1616408 C19.9116408,29.9571529 20.888071,28.9807226 22.0925589,28.9807226 L28.9806408,28.9806408 L28.9807226,22.0925589 C28.9807226,20.888071 29.9571529,19.9116408 31.1616408,19.9116408 Z" id="Combined-Shape" transform="translate(31.161641, 31.161641) rotate(-315.000000) translate(-31.161641, -31.161641) "></path>
            </g>
        </g>
    </g>
</svg>