<?xml version="1.0" encoding="UTF-8"?>
<svg width="22px" height="22px" viewBox="0 0 22 22" version="1.1" xmlns="http://www.w3.org/2000/svg" xmlns:xlink="http://www.w3.org/1999/xlink">
    <title>Instagram</title>
    <g id="Symbols" stroke="none" stroke-width="1" fill="none" fill-rule="evenodd">
        <g id="header" transform="translate(-1204.000000, -26.000000)" fill="#13241D" fill-rule="nonzero">
            <g id="Group-10" transform="translate(442.921990, 17.326772)">
                <path d="M771.673248,9.5 C774.526098,9.5 774.882048,9.5105 776.001348,9.563 C777.119598,9.6155 777.880848,9.79085 778.550748,10.05125 C779.243748,10.31795 779.827548,10.67915 780.411348,11.2619 C780.945266,11.7867908 781.358399,12.4217184 781.621998,13.1225 C781.881348,13.79135 782.057748,14.55365 782.110248,15.6719 C782.159598,16.7912 782.173248,17.14715 782.173248,20 C782.173248,22.85285 782.162748,23.2088 782.110248,24.3281 C782.057748,25.44635 781.881348,26.2076 781.621998,26.8775 C781.359158,27.5786654 780.945925,28.2137478 780.411348,28.7381 C779.886307,29.2718353 779.251423,29.6849402 778.550748,29.94875 C777.881898,30.2081 777.119598,30.3845 776.001348,30.437 C774.882048,30.48635 774.526098,30.5 771.673248,30.5 C768.820398,30.5 768.464448,30.4895 767.345148,30.437 C766.226898,30.3845 765.465648,30.2081 764.795748,29.94875 C764.09469,29.6856971 763.459651,29.2724916 762.935148,28.7381 C762.401125,28.213295 761.987976,27.5783427 761.724498,26.8775 C761.464098,26.20865 761.288748,25.44635 761.236248,24.3281 C761.186898,23.2088 761.173248,22.85285 761.173248,20 C761.173248,17.14715 761.183748,16.7912 761.236248,15.6719 C761.288748,14.5526 761.464098,13.7924 761.724498,13.1225 C761.987246,12.4212884 762.400492,11.7861871 762.935148,11.2619 C763.459802,10.7276928 764.094798,10.3145157 764.795748,10.05125 C765.465648,9.79085 766.225848,9.6155 767.345148,9.563 C768.464448,9.51365 768.820398,9.5 771.673248,9.5 Z M771.673248,14.75 C768.773753,14.75 766.423248,17.1005051 766.423248,20 C766.423248,22.8994949 768.773753,25.25 771.673248,25.25 C774.572743,25.25 776.923248,22.8994949 776.923248,20 C776.923248,17.1005051 774.572743,14.75 771.673248,14.75 L771.673248,14.75 Z M778.498248,14.4875 C778.498248,13.7626263 777.910622,13.175 777.185748,13.175 C776.460874,13.175 775.873248,13.7626263 775.873248,14.4875 C775.873248,15.2123737 776.460874,15.8 777.185748,15.8 C777.910622,15.8 778.498248,15.2123737 778.498248,14.4875 Z M771.673248,16.85 C773.412945,16.85 774.823248,18.260303 774.823248,20 C774.823248,21.739697 773.412945,23.15 771.673248,23.15 C769.933551,23.15 768.523248,21.739697 768.523248,20 C768.523248,18.260303 769.933551,16.85 771.673248,16.85 Z" id="Instagram"></path>
            </g>
        </g>
    </g>
</svg>