<?xml version="1.0" encoding="UTF-8"?>
<svg width="17px" height="25px" viewBox="0 0 17 25" version="1.1" xmlns="http://www.w3.org/2000/svg" xmlns:xlink="http://www.w3.org/1999/xlink">
    <title>Shape</title>
    <g id="Page-1" stroke="none" stroke-width="1" fill="none" fill-rule="evenodd">
        <g id="Page-Article-(Destination)" transform="translate(-1458.000000, -507.000000)" fill="#13241D" fill-rule="nonzero">
            <g id="Hero" transform="translate(214.000000, 239.278696)">
                <g id="intro" transform="translate(1215.000000, 243.000000)">
                    <path d="M37.5,25.5 C32.862,25.5 29.1,29.262 29.1,33.9 C29.1,40.2 37.5,49.5 37.5,49.5 C37.5,49.5 45.9,40.2 45.9,33.9 C45.9,29.262 42.138,25.5 37.5,25.5 Z M37.5,36.9 C35.844,36.9 34.5,35.556 34.5,33.9 C34.5,32.244 35.844,30.9 37.5,30.9 C39.156,30.9 40.5,32.244 40.5,33.9 C40.5,35.556 39.156,36.9 37.5,36.9 Z" id="Shape"></path>
                </g>
            </g>
        </g>
    </g>
</svg>