<?xml version="1.0" encoding="UTF-8"?>
<svg width="100px" height="70px" viewBox="0 0 100 70" version="1.1" xmlns="http://www.w3.org/2000/svg" xmlns:xlink="http://www.w3.org/1999/xlink">
    <title>Logo-trico-2023</title>
    <g id="Symbols" stroke="none" stroke-width="1" fill="none" fill-rule="evenodd">
        <g id="header" transform="translate(-2.000000, -3.000000)" fill="#13241D">
            <g id="Logo-trico-2023" transform="translate(2.000000, 3.000000)">
                <g id="Trico-icn" transform="translate(32.335354, 30.208081)">
                    <path d="M0.436363636,13.9888889 L0.436363636,2.13232323 C0.436363636,0.954545455 1.38989899,0 2.56767677,0 L17.7838384,0 C19.9212121,0 21.9606061,0.747474747 23.5737374,2.07070707 L23.3010101,0.626262626 C23.2626263,0.423232323 23.3969697,0.227272727 23.6,0.188888889 C23.8030303,0.150505051 24,0.283838384 24.0383838,0.487878788 L24.5020202,2.94747475 C24.7848485,3.25454545 25.0474747,3.58181818 25.2878788,3.92929293 C26.0434343,5.01818182 26.7979798,6.10606061 27.2949495,6.82424242 C27.6434343,7.32727273 28.1030303,7.74444444 28.6373737,8.04343434 C29.6939394,8.63535354 31.4292929,9.60707071 32.3484848,10.1212121 C32.8313131,10.3919192 33.179798,10.8515152 33.3111111,11.389899 C33.4020202,11.7666667 32.9545455,11.8858586 32.9545455,11.8858586 C32.7717172,11.8858586 32.6191919,11.7545455 32.5858586,11.5818182 L32.5818182,11.5666667 C32.5,11.2313131 32.2828283,10.9444444 31.9818182,10.7757576 C31.0636364,10.2616162 29.3272727,9.28989899 28.2707071,8.6979798 C27.6373737,8.34343434 27.0929293,7.84848485 26.6787879,7.25151515 C26.1808081,6.53434343 25.4272727,5.44646465 24.6717172,4.35656566 C23.1060606,2.0979798 20.5323232,0.750505051 17.7838384,0.750505051 L2.56767677,0.750505051 C1.80505051,0.750505051 1.18585859,1.36868687 1.18585859,2.13232323 L1.18585859,10.2676768 L7.22323232,10.2676768 C7.43030303,10.2676768 7.5989899,10.4363636 7.5989899,10.6434343 C7.5989899,10.8505051 7.43030303,11.0181818 7.22323232,11.0181818 L1.88787879,11.0181818 L1.88787879,13.9434343 C1.88787879,13.9585859 1.88686869,13.9737374 1.88484848,13.9888889 L3.77373737,13.9888889 C4.30505051,13.6272727 4.94646465,13.4151515 5.63737374,13.4151515 C6.33535354,13.4151515 6.98383838,13.6313131 7.51818182,14.0010101 L24.4969697,14.0010101 C25.0313131,13.6313131 25.679798,13.4151515 26.3777778,13.4151515 C27.310101,13.4151515 28.1515152,13.8 28.7545455,14.420202 L31.3919192,13.9969697 C31.3919192,13.9969697 31.8868687,13.4242424 31.8868687,13.4242424 C31.8868687,13.4242424 31.5434343,13.0616162 31.5434343,13.0616162 C31.2121212,12.7121212 30.9313131,12.3171717 30.710101,11.8888889 L30.710101,11.8888889 C30.6323232,11.7393939 30.6393939,11.5606061 30.7272727,11.4171717 C30.8151515,11.2737374 30.9727273,11.1878788 31.140404,11.1888889 L31.3989899,11.1919192 C31.7717172,11.1959596 32.1292929,11.3373737 32.4040404,11.589899 C32.420202,11.6050505 32.4363636,11.6191919 32.4515152,11.6333333 C32.5888889,11.759596 32.6838384,11.9242424 32.7242424,12.1050505 C32.7242424,12.1050505 33.0969697,13.7717172 33.0969697,13.7717172 C33.0969697,13.7717172 33.4848485,14.3494949 33.4848485,14.3494949 C33.6151515,14.5444444 33.6858586,14.7727273 33.6868687,15.0070707 L33.6939394,16.8565657 C33.6959596,16.8636364 33.6969697,16.8707071 33.6979798,16.8767677 C33.7252525,17.0818182 33.5818182,17.2717172 33.3767677,17.3 L29.5060606,17.8282828 C29.0525253,19.1191919 27.8232323,20.0454545 26.3777778,20.0454545 C24.8858586,20.0454545 23.6222222,19.0565657 23.2070707,17.6989899 L8.80808081,17.6989899 C8.39393939,19.0565657 7.13030303,20.0454545 5.63737374,20.0454545 C4.07777778,20.0454545 2.76767677,18.9656566 2.41515152,17.5131313 L0.263636364,16.8444444 C0.107070707,16.7949495 7.10542736e-15,16.6505051 7.10542736e-15,16.4858586 L7.10542736e-15,14.3636364 C7.10542736e-15,14.1565657 0.168686869,13.9888889 0.375757576,13.9888889 L0.436363636,13.9888889 L0.436363636,13.9888889 Z M5.63737374,15.4151515 C6.36363636,15.4151515 6.95252525,16.0040404 6.95252525,16.730303 C6.95252525,17.4555556 6.36363636,18.0454545 5.63737374,18.0454545 C4.91212121,18.0454545 4.32222222,17.4555556 4.32222222,16.730303 C4.32222222,16.0040404 4.91212121,15.4151515 5.63737374,15.4151515 Z M26.3777778,15.4151515 C27.1040404,15.4151515 27.6929293,16.0040404 27.6929293,16.730303 C27.6929293,17.4555556 27.1040404,18.0454545 26.3777778,18.0454545 C25.6525253,18.0454545 25.0626263,17.4555556 25.0626263,16.730303 C25.0626263,16.0040404 25.6525253,15.4151515 26.3777778,15.4151515 Z M33.079798,12.3747475 L33.1363636,13.3808081 C33.1474747,13.5878788 33.3242424,13.7454545 33.5313131,13.7343434 C33.7383838,13.7232323 33.8959596,13.5454545 33.8848485,13.3393939 L33.8292929,12.3333333 C33.8171717,12.1262626 33.640404,11.9676768 33.4333333,11.9787879 C33.2272727,11.9909091 33.0686869,12.1676768 33.079798,12.3747475 L33.079798,12.3747475 Z M19.3282828,10.2676768 L17.9080808,10.2676768 C17.7010101,10.2676768 17.5323232,10.4363636 17.5323232,10.6434343 C17.5323232,10.8505051 17.7010101,11.0181818 17.9080808,11.0181818 L19.3282828,11.0181818 C19.5343434,11.0181818 19.7030303,10.8505051 19.7030303,10.6434343 C19.7030303,10.4363636 19.5343434,10.2676768 19.3282828,10.2676768 Z M22.2646465,10.2676768 L20.8444444,10.2676768 C20.6373737,10.2676768 20.469697,10.4363636 20.469697,10.6434343 C20.469697,10.8505051 20.6373737,11.0181818 20.8444444,11.0181818 L22.2646465,11.0181818 C22.4717172,11.0181818 22.640404,10.8505051 22.640404,10.6434343 C22.640404,10.4363636 22.4717172,10.2676768 22.2646465,10.2676768 Z M27.1787879,10.6262626 C27.3313131,10.6656566 27.4909091,10.6060606 27.5808081,10.4767677 C27.669697,10.3484848 27.669697,10.1767677 27.579798,10.0484848 C27.579798,10.0484848 25.2656566,6.73636364 24.2343434,5.25959596 C23.8676768,4.73434343 23.3111111,4.36969697 22.6818182,4.24444444 C22.079798,4.12323232 21.2949495,3.96666667 20.8424242,3.87575758 C20.6393939,3.83535354 20.4292929,3.89494949 20.2767677,4.03535354 C20.1242424,4.17575758 20.0484848,4.37979798 20.0727273,4.58585859 L20.3505051,6.94343434 C20.4919192,8.14444444 21.3585859,9.13535354 22.530303,9.43535354 C24.4090909,9.91717172 27.1787879,10.6262626 27.1787879,10.6262626 L27.1787879,10.6262626 Z M9.55656566,9.02929293 L4.15151515,9.02929293 C3.94444444,9.02929293 3.77575758,9.1969697 3.77575758,9.4040404 C3.77575758,9.61111111 3.94444444,9.77878788 4.15151515,9.77878788 L9.96464646,9.77878788 C9.97979798,9.77878788 9.99494949,9.77777778 10.0090909,9.77676768 L17.7747475,9.77676768 C18.2343434,9.77676768 18.6313131,9.45353535 18.7242424,9.0030303 C18.9252525,8.02626263 19.3838384,5.79494949 19.5939394,4.77878788 C19.6424242,4.54040404 19.5818182,4.29191919 19.4282828,4.1040404 C19.2747475,3.91515152 19.0434343,3.80606061 18.8,3.80606061 L9.91919192,3.80606061 C9.82020202,3.80606061 9.72424242,3.84545455 9.65454545,3.91616162 C9.58383838,3.98585859 9.54444444,4.08181818 9.54444444,4.18181818 L9.55656566,9.02929293 L9.55656566,9.02929293 Z" id="Shape"></path>
                </g>
                <g id="ROAD-STRIPE" transform="translate(1.335354, 49.183838)">
                    <path d="M98.3616162,0 L0,0 L0,20.1212121 L98.3616162,20.1212121 L98.3616162,0 L98.3616162,0 Z M39.9818182,16.1343434 C39.0353535,16.1343434 38.2030303,15.9070707 37.4838384,15.4515152 C36.7656566,14.9969697 36.2050505,14.3171717 35.8040404,13.4121212 C35.4030303,12.5080808 35.2020202,11.3787879 35.2020202,10.0252525 C35.2020202,8.70808081 35.4030303,7.6030303 35.8040404,6.71010101 C36.2050505,5.81818182 36.7656566,5.14747475 37.4838384,4.6979798 C38.2030303,4.24848485 39.0353535,4.02424242 39.9818182,4.02424242 C40.9282828,4.02424242 41.7606061,4.24848485 42.479798,4.6979798 C43.1979798,5.14747475 43.7575758,5.81818182 44.159596,6.71010101 C44.5606061,7.6030303 44.7616162,8.70808081 44.7616162,10.0252525 C44.7616162,11.3787879 44.5606061,12.5080808 44.159596,13.4121212 C43.7575758,14.3171717 43.1979798,14.9969697 42.479798,15.4515152 C41.7606061,15.9070707 40.9282828,16.1343434 39.9818182,16.1343434 Z M71.6767677,15.9191919 L71.6767677,4.24040404 L75.0373737,4.24040404 C76.1515152,4.24040404 77.1363636,4.43434343 77.9929293,4.82424242 C78.8494949,5.21313131 79.520202,5.83333333 80.0050505,6.68383838 C80.4909091,7.53434343 80.7333333,8.64848485 80.7333333,10.0252525 C80.7333333,11.4030303 80.4929293,12.5262626 80.0141414,13.3949495 C79.5353535,14.2626263 78.879798,14.9010101 78.0464646,15.3080808 C77.2141414,15.7151515 76.2707071,15.9191919 75.2171717,15.9191919 L71.6767677,15.9191919 L71.6767677,15.9191919 Z M21.8717172,12.0020202 L20.7565657,12.0020202 L20.7565657,15.9191919 L17.6656566,15.9191919 L17.6656566,4.24040404 L22.0141414,4.24040404 C22.8525253,4.24040404 23.6252525,4.35050505 24.3313131,4.57272727 C25.0383838,4.79393939 25.6070707,5.17979798 26.0383838,5.73131313 C26.469697,6.28181818 26.6858586,7.04343434 26.6858586,8.01313131 C26.6858586,8.94747475 26.469697,9.70808081 26.0383838,10.2949495 C25.7050505,10.7494949 25.2888889,11.110101 24.7909091,11.3777778 L27.3323232,15.9191919 L23.8828283,15.9191919 L21.8717172,12.0020202 L21.8717172,12.0020202 Z M56.2949495,13.4393939 L55.7212121,15.9191919 L52.559596,15.9191919 L56.0808081,4.24040404 L59.8181818,4.24040404 L63.340404,15.9191919 L60.069697,15.9191919 L59.4969697,13.4393939 L56.2949495,13.4393939 Z M39.9818182,13.4757576 C40.3171717,13.4757576 40.6050505,13.3494949 40.8444444,13.0979798 C41.0838384,12.8464646 41.269697,12.4666667 41.4010101,11.9575758 C41.5333333,11.4484848 41.5989899,10.8040404 41.5989899,10.0252525 C41.5989899,9.28282828 41.5333333,8.66262626 41.4010101,8.16565657 C41.269697,7.66868687 41.0838384,7.2979798 40.8444444,7.05151515 C40.6050505,6.80606061 40.3171717,6.68383838 39.9818182,6.68383838 C39.6464646,6.68383838 39.3585859,6.80606061 39.1191919,7.05151515 C38.879798,7.2979798 38.6939394,7.66868687 38.5626263,8.16565657 C38.430303,8.66262626 38.3646465,9.28282828 38.3646465,10.0252525 C38.3646465,10.8040404 38.430303,11.4484848 38.5626263,11.9575758 C38.6939394,12.4666667 38.879798,12.8464646 39.1191919,13.0979798 C39.3585859,13.3494949 39.6464646,13.4757576 39.9818182,13.4757576 Z M74.7676768,13.4393939 L74.8757576,13.4393939 C75.3787879,13.4393939 75.8333333,13.3434343 76.2414141,13.1525253 C76.6484848,12.9606061 76.9717172,12.6191919 77.2111111,12.1282828 C77.4505051,11.6363636 77.5707071,10.9363636 77.5707071,10.0252525 C77.5707071,9.11515152 77.4505051,8.42323232 77.2111111,7.95050505 C76.9717172,7.47676768 76.6484848,7.15353535 76.2414141,6.97979798 C75.8333333,6.80606061 75.3787879,6.71919192 74.8757576,6.71919192 L74.7676768,6.71919192 L74.7676768,13.4393939 L74.7676768,13.4393939 Z M58.9454545,11.0494949 L56.8464646,11.0494949 L57.0333333,10.2414141 C57.1646465,9.67777778 57.3030303,9.06767677 57.4464646,8.40808081 C57.589899,7.74949495 57.7222222,7.12727273 57.8414141,6.53939394 L57.9141414,6.53939394 C58.0454545,7.12727273 58.1888889,7.74949495 58.3454545,8.40808081 C58.5010101,9.06767677 58.6383838,9.67777778 58.7585859,10.2414141 L58.9454545,11.0494949 Z M20.7565657,9.55858586 L21.7979798,9.55858586 C22.4090909,9.55858586 22.8737374,9.42626263 23.1909091,9.16363636 C23.5080808,8.9 23.6666667,8.51616162 23.6666667,8.01313131 C23.6666667,7.51010101 23.5080808,7.16262626 23.1909091,6.97070707 C22.8737374,6.77979798 22.4090909,6.68383838 21.7979798,6.68383838 L20.7565657,6.68383838 L20.7565657,9.55858586 Z" id="Shape"></path>
                </g>
                <g id="Group" transform="translate(9.509091, 38.443434)">
                    <path d="M4.31414141,10.9323232 C3.45959596,10.9323232 2.70808081,10.7262626 2.05959596,10.3151515 C1.41111111,9.90505051 0.905050505,9.29090909 0.543434343,8.47474747 C0.180808081,7.65858586 -1.77635684e-15,6.63939394 -1.77635684e-15,5.41717172 C-1.77635684e-15,4.22727273 0.180808081,3.23030303 0.543434343,2.42424242 C0.905050505,1.61919192 1.41111111,1.01313131 2.05959596,0.608080808 C2.70808081,0.203030303 3.45959596,0 4.31414141,0 C5.16868687,0 5.92020202,0.203030303 6.56868687,0.608080808 C7.21717172,1.01313131 7.72323232,1.61919192 8.08484848,2.42424242 C8.44747475,3.23030303 8.62828283,4.22727273 8.62828283,5.41717172 C8.62828283,6.63939394 8.44747475,7.65858586 8.08484848,8.47474747 C7.72323232,9.29090909 7.21717172,9.90505051 6.56868687,10.3151515 C5.92020202,10.7262626 5.16868687,10.9323232 4.31414141,10.9323232 L4.31414141,10.9323232 Z M4.31414141,8.53131313 C4.61717172,8.53131313 4.87676768,8.41818182 5.09292929,8.19090909 C5.30909091,7.96363636 5.47676768,7.62020202 5.59494949,7.16060606 C5.71414141,6.7010101 5.77373737,6.12020202 5.77373737,5.41717172 C5.77373737,4.74646465 5.71414141,4.18686869 5.59494949,3.73838384 C5.47676768,3.28989899 5.30909091,2.95454545 5.09292929,2.73333333 C4.87676768,2.51111111 4.61717172,2.4 4.31414141,2.4 C4.01111111,2.4 3.75151515,2.51111111 3.53535354,2.73333333 C3.31919192,2.95454545 3.15151515,3.28989899 3.03232323,3.73838384 C2.91414141,4.18686869 2.85454545,4.74646465 2.85454545,5.41717172 C2.85454545,6.12020202 2.91414141,6.7010101 3.03232323,7.16060606 C3.15151515,7.62020202 3.31919192,7.96363636 3.53535354,8.19090909 C3.75151515,8.41818182 4.01111111,8.53131313 4.31414141,8.53131313 Z" id="Shape"></path>
                    <path d="M10.1535354,10.7373737 L10.1535354,0.194949495 L12.9757576,0.194949495 L14.7434343,4.8979798 L15.6030303,7.26666667 L15.6676768,7.26666667 C15.6030303,6.69292929 15.5222222,6.04141414 15.4242424,5.31212121 C15.3272727,4.58181818 15.2787879,3.89292929 15.2787879,3.24343434 L15.2787879,0.194949495 L17.9383838,0.194949495 L17.9383838,10.7373737 L15.1161616,10.7373737 L13.3484848,6.01717172 L12.4888889,3.66565657 L12.4242424,3.66565657 C12.4888889,4.26060606 12.569697,4.91717172 12.6666667,5.63636364 C12.7646465,6.35555556 12.8131313,7.03939394 12.8131313,7.68787879 L12.8131313,10.7373737 L10.1535354,10.7373737 L10.1535354,10.7373737 Z" id="Path"></path>
                    <polygon id="Path" points="61.310101 10.7373737 61.310101 2.53030303 58.2767677 2.53030303 58.2767677 0.194949495 67.1323232 0.194949495 67.1323232 2.53030303 64.0989899 2.53030303 64.0989899 10.7373737"></polygon>
                    <polygon id="Path" points="68.5111111 10.7373737 68.5111111 0.194949495 71.3010101 0.194949495 71.3010101 4.11919192 73.5717172 4.11919192 73.5717172 0.194949495 76.3616162 0.194949495 76.3616162 10.7373737 73.5717172 10.7373737 73.5717172 6.55252525 71.3010101 6.55252525 71.3010101 10.7373737"></polygon>
                    <polygon id="Path" points="78.6646465 10.7373737 78.6646465 0.194949495 85.8333333 0.194949495 85.8333333 2.53030303 81.4545455 2.53030303 81.4545455 4.18484848 85.1848485 4.18484848 85.1848485 6.52020202 81.4545455 6.52020202 81.4545455 8.4020202 85.9959596 8.4020202 85.9959596 10.7373737 78.6646465 10.7373737"></polygon>
                </g>
                <g id="Group">
                    <polygon id="Path" points="5.42727273 16.1262626 1.78181818 18.1757576 2.2428748e-16 15.0060606 10.7767677 8.94646465 12.5585859 12.1161616 8.91414141 14.1656566 19.6080808 33.1828283 16.1212121 35.1434343"></polygon>
                    <path d="M23.8585859,3.85858586 L29.630303,2.51111111 C31.6363636,2.04242424 33.2090909,2.16666667 34.3474747,2.88383838 C35.4858586,3.6010101 36.2818182,4.92828283 36.7333333,6.86363636 L37.0888889,8.38686869 C37.689899,10.959596 37.220202,12.7868687 35.6808081,13.8686869 L35.6969697,13.9393939 C36.7080808,14.0020202 37.510101,14.4252525 38.1030303,15.2070707 C38.6969697,15.989899 39.1646465,17.1131313 39.5060606,18.5767677 L40.5232323,22.9323232 C40.6888889,23.640404 40.8464646,24.2070707 40.9959596,24.6333333 C41.1444444,25.0585859 41.3636364,25.4616162 41.6515152,25.8424242 L37.6858586,26.7686869 C37.4505051,26.4010101 37.2676768,26.0454545 37.1373737,25.7020202 C37.0080808,25.3585859 36.8353535,24.7272727 36.620202,23.8060606 L35.5616162,19.2737374 C35.2969697,18.140404 34.9292929,17.3929293 34.4585859,17.0292929 C33.9878788,16.6666667 33.3040404,16.589899 32.4070707,16.7989899 L31.0616162,17.1131313 L33.5424242,27.7363636 L29.6474747,28.6464646 L23.8585859,3.85858586 Z M31.6505051,13.2414141 C32.430303,13.059596 32.9676768,12.7222222 33.2626263,12.230303 C33.5585859,11.7383838 33.5959596,11.0191919 33.3757576,10.0757576 L32.9292929,8.16363636 C32.720202,7.26565657 32.4090909,6.65454545 31.9959596,6.32727273 C31.5838384,6 31.0353535,5.91717172 30.3505051,6.07676768 L28.579798,6.48989899 L30.2343434,13.5727273 L31.6505051,13.2414141 L31.6505051,13.2414141 Z" id="Shape"></path>
                    <polygon id="Path" points="48.7292929 0.0191919192 52.7292929 0 52.8505051 25.4545455 48.8505051 25.4737374"></polygon>
                    <path d="M66.1686869,27.4929293 C64.3,27.0707071 62.9959596,26.2161616 62.2555556,24.930303 C61.5151515,23.6444444 61.3636364,22.0313131 61.8020202,20.0929293 L64.8181818,6.75656566 C65.2565657,4.81818182 66.0868687,3.42727273 67.3080808,2.58484848 C68.530303,1.74343434 70.0757576,1.53333333 71.9434343,1.95555556 C73.8111111,2.37777778 75.1161616,3.23232323 75.8565657,4.51818182 C76.5969697,5.8040404 76.7484848,7.41717172 76.3090909,9.35555556 L75.7161616,11.979798 L72.0272727,11.1464646 L72.6767677,8.27272727 C73.0242424,6.73636364 72.5484848,5.82121212 71.2474747,5.52626263 C69.9474747,5.23232323 69.1232323,5.85353535 68.7757576,7.39090909 L65.6393939,21.2585859 C65.2969697,22.7717172 65.7767677,23.6757576 67.0767677,23.969697 C68.3767677,24.2636364 69.1989899,23.6545455 69.540404,22.1414141 L70.3989899,18.3464646 L74.0878788,19.179798 L73.2939394,22.6919192 C72.8555556,24.630303 72.0252525,26.0212121 70.8030303,26.8636364 C69.5808081,27.7050505 68.0363636,27.9151515 66.1686869,27.4929293 L66.1686869,27.4929293 Z" id="Path"></path>
                    <path d="M83.7818182,34.1818182 C82.0616162,33.2353535 81.0141414,32.0212121 80.6383838,30.5424242 C80.2626263,29.0626263 80.5656566,27.430303 81.5474747,25.6464646 L88.0010101,13.9232323 C88.9828283,12.1393939 90.1989899,11.010101 91.6494949,10.5363636 C93.1010101,10.0616162 94.6868687,10.2979798 96.4070707,11.2444444 C98.1272727,12.1919192 99.1747475,13.4050505 99.5505051,14.8848485 C99.9262626,16.3636364 99.6222222,17.9959596 98.640404,19.779798 L92.1878788,31.5030303 C91.2060606,33.2868687 89.989899,34.4161616 88.5383838,34.8909091 C87.0878788,35.3646465 85.5020202,35.1282828 83.7818182,34.1818182 L83.7818182,34.1818182 Z M85.5353535,30.9959596 C86.7464646,31.6626263 87.7545455,31.2626263 88.5616162,29.7969697 L95.259596,17.6282828 C96.0656566,16.1626263 95.8636364,15.0969697 94.6535354,14.430303 C93.4424242,13.7636364 92.4343434,14.1636364 91.6272727,15.6292929 L84.9292929,27.7979798 C84.1232323,29.2636364 84.3252525,30.3292929 85.5353535,30.9959596 Z" id="Shape"></path>
                </g>
            </g>
        </g>
    </g>
</svg>