<?xml version="1.0" encoding="UTF-8"?>
<svg width="108px" height="75px" viewBox="0 0 108 75" version="1.1" xmlns="http://www.w3.org/2000/svg" xmlns:xlink="http://www.w3.org/1999/xlink">
    <title>Logo-trico</title>
    <g id="Symbols" stroke="none" stroke-width="1" fill="none" fill-rule="evenodd">
        <g id="Logo-trico" fill="#13241D" transform="translate(0.000000, 0.000000)">
            <g id="Van" transform="translate(34.831829, 32.532523)">
                <path d="M4.55310902,15.0343525 C5.00484089,14.8029729 5.51654573,14.6724833 6.05823705,14.6724833 C6.60960143,14.6724833 7.12904472,14.8076159 7.58658043,15.046734 C7.58851504,15.046734 7.59044965,15.046734 7.59238426,15.046734 L26.7198918,15.046734 C27.1774275,14.8076159 27.6978381,14.6724833 28.2492024,14.6724833 C29.1197778,14.6724833 29.9129686,15.0099763 30.5039926,15.561244 L33.736729,15.042768 C33.736729,15.042768 34.2697146,14.4267876 34.2697146,14.4267876 C34.2697146,14.4267876 33.9002037,14.0373502 33.9002037,14.0373502 C33.5432678,13.6615519 33.2424357,13.2371948 33.0044784,12.7769506 L33.0044784,12.7767571 C32.9212901,12.6161844 32.9280612,12.4238839 33.0228572,12.2699856 C33.1176532,12.1160872 33.2859644,12.0231291 33.4668506,12.0250637 L33.7444674,12.0280623 C34.1449321,12.0323185 34.5299199,12.1845724 34.8249482,12.4555148 C34.8423597,12.4716688 34.8597712,12.4874359 34.8762154,12.5026226 C35.0232459,12.6376585 35.1257803,12.8144821 35.1693091,13.0092975 C35.1693091,13.0092975 35.5697737,14.800071 35.5697737,14.800071 C35.5697737,14.800071 35.9866826,15.421565 35.9866826,15.421565 C36.126942,15.6305031 36.2023918,15.8761021 36.2033591,16.1276983 L36.2120649,18.1163826 C36.2130322,18.1235407 36.2139995,18.1307955 36.2149668,18.1380503 C36.2459206,18.3584993 36.0911516,18.561827 35.8706059,18.5920069 L31.3184642,19.2138879 C30.8290074,20.4290176 29.6382538,21.2877918 28.2492024,21.2877918 C26.7866359,21.2877918 25.5455824,20.337317 25.1083601,19.0212973 L9.19811211,19.0212973 C8.76185713,20.337317 7.51983632,21.2877918 6.05823705,21.2877918 C4.55601094,21.2877918 3.28593825,20.2839217 2.88353898,18.9109277 L0.283420638,18.1025501 C0.1141421,18.0501222 0,17.8940957 0,17.7176591 L0,15.4371386 C0,15.2145615 0.179918903,15.0340623 0.402399268,15.0340623 L0.468176071,15.0340623 L0.468176071,2.29077391 C0.468176071,1.02563448 1.49352036,0 2.75875652,0 L19.1129979,0 C21.4084149,0 23.6012974,0.803347577 25.3347097,2.22470691 L25.041616,0.673051468 C25.0000218,0.454440327 25.1441504,0.243470903 25.3627615,0.20216694 C25.5813727,0.160959707 25.7922454,0.30489483 25.8338395,0.523505971 L26.3329694,3.16754001 C26.6357362,3.49700441 26.9181895,3.84881357 27.1764602,4.2220002 C27.9889971,5.39331096 28.7995995,6.56249364 29.3335524,7.33353319 C29.7088671,7.8745474 30.2021931,8.3228937 30.7767728,8.64452292 C31.91239,9.28013965 33.7773558,10.3247333 34.7649752,10.8776454 C35.2844185,11.1684176 35.6597332,11.662324 35.7990252,12.2406762 C35.8976905,12.6460741 35.4159721,12.7736618 35.4159721,12.7736618 C35.219609,12.7736618 35.0561343,12.6329187 35.020344,12.4469058 L35.0164747,12.4306551 C34.9284499,12.0701402 34.6953292,11.7622467 34.3712817,11.5809735 C33.3836623,11.0280615 31.5186965,9.98356453 30.3830793,9.34785107 C29.702096,8.96634561 29.1159086,8.43452081 28.6719151,7.79281005 C28.136995,7.02177049 27.3263926,5.85258781 26.5148229,4.68127706 C24.8317106,2.25411301 22.0661829,0.806152764 19.1129979,0.806152764 L2.75875652,0.806152764 C1.93848109,0.806152764 1.27394191,1.4708854 1.27394191,2.29077391 L1.27394191,11.0350261 L17.3099397,11.0350261 C17.53242,11.0350261 17.7123389,11.2156221 17.7123389,11.4381025 C17.7123389,11.6604861 17.53242,11.8410821 17.3099397,11.8410821 L2.02747323,11.8410821 L2.02747323,14.98531 C2.02747323,15.001851 2.02650593,15.0181017 2.02457132,15.0340623 L4.54246866,15.0340623 C4.53763213,15.0340623 4.5327956,15.034159 4.52699176,15.0343525 L4.55310902,15.0343525 Z M28.2492024,15.4785393 C29.629548,15.4785393 30.7506556,16.5994535 30.7506556,17.9800892 C30.7506556,19.360725 29.629548,20.4816391 28.2492024,20.4816391 C26.8678896,20.4816391 25.7477493,19.360725 25.7477493,17.9800892 C25.7477493,16.5994535 26.8678896,15.4785393 28.2492024,15.4785393 Z M3.6206261,17.4158597 C3.77539505,16.9332707 4.03656766,16.4898577 4.3867324,16.1194762 C4.82975852,15.7211397 5.41594591,15.4785393 6.05823705,15.4785393 C7.43858262,15.4785393 8.55969019,16.5994535 8.55969019,17.9800892 C8.55969019,19.360725 7.43858262,20.4816391 6.05823705,20.4816391 C4.67789149,20.4816391 3.55678391,19.360725 3.55678391,17.9800892 C3.55678391,17.7861444 3.57903195,17.5972295 3.6206261,17.4158597 Z M28.2492024,16.3977702 C27.3757252,16.3977702 26.6666899,17.1068054 26.6666899,17.9800892 C26.6666899,18.853373 27.3757252,19.5624083 28.2492024,19.5624083 C29.1217124,19.5624083 29.8307476,18.853373 29.8307476,17.9800892 C29.8307476,17.1068054 29.1217124,16.3977702 28.2492024,16.3977702 Z M6.05823705,16.3977702 C5.1847598,16.3977702 4.47572455,17.1068054 4.47572455,17.9800892 C4.47572455,18.853373 5.1847598,19.5624083 6.05823705,19.5624083 C6.93171431,19.5624083 7.64074956,18.853373 7.64074956,17.9800892 C7.64074956,17.1068054 6.93171431,16.3977702 6.05823705,16.3977702 Z M6.05823705,17.2039229 C6.48675358,17.2039229 6.83401641,17.5516694 6.83401641,17.9800892 C6.83401641,18.408509 6.48675358,18.7562555 6.05823705,18.7562555 C5.62972053,18.7562555 5.28149039,18.408509 5.28149039,17.9800892 C5.28149039,17.5516694 5.62972053,17.2039229 6.05823705,17.2039229 Z M28.2492024,17.2039229 C28.677719,17.2039229 29.0249818,17.5516694 29.0249818,17.9800892 C29.0249818,18.408509 28.677719,18.7562555 28.2492024,18.7562555 C27.8206859,18.7562555 27.4724558,18.408509 27.4724558,17.9800892 C27.4724558,17.5516694 27.8206859,17.2039229 28.2492024,17.2039229 Z M25.2021888,16.6908639 L9.10428343,16.6908639 C9.27259467,17.0870724 9.36545604,17.5228437 9.36545604,17.9800892 C9.36545604,18.0591181 9.36255412,18.1375666 9.35771759,18.2151445 L24.9497219,18.2151445 C24.9439181,18.1375666 24.9410162,18.0591181 24.9410162,17.9800892 C24.9410162,17.5228437 25.0338775,17.0870724 25.2021888,16.6908639 Z M35.5513949,13.2988121 L35.6113679,14.3803569 C35.6239429,14.6025471 35.8145021,14.7727929 36.0360152,14.7605081 C36.2584956,14.7481266 36.4287414,14.5577608 36.4161664,14.3356674 L36.3561935,13.2541226 C36.3445858,13.0320292 36.1540265,12.8616866 35.9315462,12.8740681 C35.7100331,12.8863529 35.5397873,13.0767187 35.5513949,13.2988121 Z M23.9282468,11.0350261 L22.4018381,11.0350261 C22.1793577,11.0350261 21.9984715,11.2156221 21.9984715,11.4381025 C21.9984715,11.6604861 22.1793577,11.8410821 22.4018381,11.8410821 L23.9282468,11.8410821 C24.1507272,11.8410821 24.3316134,11.6604861 24.3316134,11.4381025 C24.3316134,11.2156221 24.1507272,11.0350261 23.9282468,11.0350261 Z M20.7719276,11.0350261 L19.2455188,11.0350261 C19.0230385,11.0350261 18.8421523,11.2156221 18.8421523,11.4381025 C18.8421523,11.6604861 19.0230385,11.8410821 19.2455188,11.8410821 L20.7719276,11.8410821 C20.994408,11.8410821 21.1743269,11.6604861 21.1743269,11.4381025 C21.1743269,11.2156221 20.994408,11.0350261 20.7719276,11.0350261 Z M29.2097372,11.4204008 C29.3732119,11.4622851 29.5444251,11.398056 29.6411557,11.2595378 C29.736919,11.1210196 29.736919,10.9373282 29.6401884,10.7991969 C29.6401884,10.7991969 27.1532448,7.23951106 26.0447122,5.65254895 C25.6500514,5.08725536 25.0522563,4.6962703 24.3761095,4.5609442 C23.7289818,4.43151867 22.8854911,4.26282051 22.3989362,4.16541281 C22.180325,4.12169058 21.9549427,4.18524258 21.791468,4.3361423 C21.6279933,4.48704203 21.5467396,4.70710413 21.5718896,4.9280368 L21.8707871,7.46208815 C22.0226542,8.75315138 22.9541698,9.81757483 24.2136021,10.1402681 C26.2333369,10.6577768 29.2097372,11.4204008 29.2097372,11.4204008 Z M10.2698871,9.70323927 L4.46024765,9.70323927 C4.23776729,9.70323927 4.05784839,9.88383529 4.05784839,10.1063156 C4.05784839,10.328796 4.23776729,10.509392 4.46024765,10.509392 L10.709044,10.509392 C10.7245209,10.509392 10.7409651,10.5084247 10.756442,10.5065868 L19.1023575,10.5065868 C19.5966509,10.5065868 20.0222655,10.1592273 20.1228653,9.6751874 C20.3385745,8.62517681 20.8319006,6.22790251 21.0572828,5.13523373 C21.1095174,4.87899439 21.0447079,4.61269507 20.8792985,4.40994775 C20.7138892,4.20720042 20.4662589,4.08957602 20.2050863,4.08957602 C18.0644383,4.08957602 10.6606787,4.08957602 10.6606787,4.08957602 C10.5533077,4.08957602 10.4507733,4.13213748 10.3753234,4.20797427 C10.2989063,4.28371432 10.2573121,4.38653894 10.2573121,4.49352298 L10.2698871,9.70323927 Z M4.62759158,7.0543687 L4.44477076,7.0543687 C4.22229039,7.0543687 4.04140418,7.23496472 4.04140418,7.45744508 C4.04140418,7.67982872 4.22229039,7.86042474 4.44477076,7.86042474 L6.92397586,7.86042474 C7.14645623,7.86042474 7.32637513,7.67982872 7.32637513,7.45744508 C7.32637513,7.23496472 7.14645623,7.0543687 6.92397586,7.0543687 L6.77017422,7.0543687 C6.76920691,6.9860769 6.7672723,6.85297561 6.7672723,6.70014127 C6.7672723,6.47766091 6.58638609,6.29706489 6.36487303,6.29706489 L5.03095815,6.29706489 C4.80847779,6.29706489 4.62759158,6.47766091 4.62759158,6.70014127 C4.62759158,6.85297561 4.62759158,6.9860769 4.62759158,7.0543687 Z M7.35152509,6.41401218 C7.60012271,6.34020673 7.77230317,5.91101309 7.37280582,5.61927362 C6.83111449,5.22316184 6.37744801,5.01248261 5.63649167,5.01122254 C4.83943158,5.00987088 4.16135012,5.54440414 4.08783487,5.61646843 C3.99981003,5.70207501 3.8324661,5.87686719 3.8324661,5.9976837 C3.8324661,6.22006734 4.01335231,6.40066335 4.23486537,6.40066335 C4.23486537,6.40066335 4.34126902,6.42204081 4.47765916,6.31989331 C5.18862902,5.78594043 6.16560801,5.77984641 6.88334901,6.30509353 C6.88334901,6.30509353 7.0922871,6.49110646 7.35152509,6.41401218 Z" id="Shape"></path>
            </g>
            <g id="ROAD-STRIPE" transform="translate(1.439475, 52.979550)">
                <path d="M105.951461,0 L0,0 L0,21.6739952 L105.951461,21.6739952 L105.951461,0 Z M43.0665583,17.3796581 C42.0471746,17.3796581 41.1505871,17.1344577 40.3764039,16.6442527 C39.6022208,16.1538518 38.999012,15.4215799 38.5667777,14.4474369 C38.1345434,13.473294 37.9183283,12.25728 37.9183283,10.7991991 C37.9183283,9.37989596 38.1345434,8.18953792 38.5667777,7.22832087 C38.999012,6.26710383 39.6022208,5.54442842 40.3764039,5.06068634 C41.1505871,4.57674842 42.0471746,4.33487738 43.0665583,4.33487738 C44.0859419,4.33487738 44.9827252,4.57674842 45.7569084,5.06068634 C46.5310916,5.54442842 47.1343003,6.26710383 47.5665346,7.22832087 C47.998769,8.18953792 48.2147882,9.37989596 48.2147882,10.7991991 C48.2147882,12.25728 47.998769,13.473294 47.5665346,14.4474369 C47.1343003,15.4215799 46.5310916,16.1538518 45.7569084,16.6442527 C44.9827252,17.1344577 44.0859419,17.3796581 43.0665583,17.3796581 Z M77.2075856,17.1473836 L77.2075856,4.56715191 L80.826838,4.56715191 C82.0267926,4.56715191 83.0880874,4.7767082 84.0105268,5.19601661 C84.933162,5.61552087 85.6556415,6.28316328 86.1781613,7.19933552 C86.7008769,8.11531191 86.9621368,9.31526645 86.9621368,10.7991991 C86.9621368,12.282936 86.7040105,13.4926828 86.1879537,14.4280481 C85.6718968,15.3636092 84.9652809,16.0506404 84.0686933,16.4893377 C83.1719099,16.928035 82.1558557,17.1473836 81.0203349,17.1473836 L77.2075856,17.1473836 Z M23.5594142,12.928056 L22.3575012,12.928056 L22.3575012,17.1473836 L19.028494,17.1473836 L19.028494,4.56715191 L23.7123707,4.56715191 C24.615617,4.56715191 25.4477709,4.68642273 26.2090282,4.92516022 C26.9702855,5.1638977 27.5830907,5.57987672 28.0476398,6.17348896 C28.5121889,6.7671012 28.7444634,7.58632918 28.7444634,8.63156459 C28.7444634,9.63782645 28.5121889,10.4572503 28.0476398,11.0894444 C27.6882605,11.5786702 27.2401626,11.9672306 26.703346,12.2555174 L29.4410911,17.1473836 L25.7250903,17.1473836 L23.5594142,12.928056 Z M60.6379506,14.4764223 L60.0210326,17.1473836 L56.6146658,17.1473836 L60.4080262,4.56715191 L64.4336612,4.56715191 L68.2272175,17.1473836 L64.7047134,17.1473836 L64.0875996,14.4764223 L60.6379506,14.4764223 Z M43.0665583,14.5152 C43.427896,14.5152 43.7375301,14.3796739 43.9956564,14.1088175 C44.2535869,13.8377652 44.4537425,13.4280533 44.5955357,12.8796817 C44.7375248,12.3313102 44.8084214,11.637816 44.8084214,10.7991991 C44.8084214,9.99916415 44.7375248,9.33152175 44.5955357,8.79607607 C44.4537425,8.26063038 44.2535869,7.86051497 43.9956564,7.59612153 C43.7375301,7.33153224 43.427896,7.19933552 43.0665583,7.19933552 C42.7052205,7.19933552 42.3955864,7.33153224 42.137656,7.59612153 C41.8795296,7.86051497 41.6795698,8.26063038 41.5375808,8.79607607 C41.3955917,9.33152175 41.3246951,9.99916415 41.3246951,10.7991991 C41.3246951,11.637816 41.3955917,12.3313102 41.5375808,12.8796817 C41.6795698,13.4280533 41.8795296,13.8377652 42.137656,14.1088175 C42.3955864,14.3796739 42.7052205,14.5152 43.0665583,14.5152 Z M80.5363969,14.4764223 L80.6525342,14.4764223 C81.1944428,14.4764223 81.6848437,14.3732109 82.123541,14.1667882 C82.5622383,13.9603655 82.9106501,13.5925648 83.1685805,13.0635821 C83.4267069,12.5345993 83.5557701,11.779805 83.5557701,10.7991991 C83.5557701,9.81859322 83.4267069,9.07339541 83.1685805,8.56380153 C82.9106501,8.0540118 82.5622383,7.70579585 82.123541,7.51856612 C81.6848437,7.33153224 81.1944428,7.23791738 80.6525342,7.23791738 L80.5363969,7.23791738 L80.5363969,14.4764223 Z M63.4930081,11.9024052 L61.2325421,11.9024052 L61.4338728,11.0314737 C61.575666,10.4249355 61.724118,9.76688962 61.879033,9.05733596 C62.0337521,8.34758645 62.1757412,7.67661464 62.3048044,7.04442055 L62.3821639,7.04442055 C62.524153,7.67661464 62.6788721,8.34758645 62.846713,9.05733596 C63.014358,9.76688962 63.1628101,10.4249355 63.2918732,11.0314737 L63.4930081,11.9024052 Z M22.3575012,10.2958723 L23.4800962,10.2958723 C24.1381421,10.2958723 24.6381395,10.1540791 24.9800883,9.87010098 C25.3220372,9.58631869 25.4930116,9.17347322 25.4930116,8.63156459 C25.4930116,8.08965596 25.3220372,7.71539235 24.9800883,7.50896962 C24.6381395,7.30254689 24.1381421,7.19933552 23.4800962,7.19933552 L22.3575012,7.19933552 L22.3575012,10.2958723 Z" id="Shape"></path>
            </g>
            <g id="Group" transform="translate(10.243698, 41.410314)">
                <path d="M4.64711637,11.7750796 C3.72653072,11.7750796 2.91746744,11.554139 2.21887445,11.1112058 C1.51922935,10.6693247 0.975294743,10.0075551 0.584966426,9.12905338 C0.194638109,8.24949954 0,7.15110935 0,5.83493489 C0,4.55453176 0.194638109,3.47928772 0.584966426,2.61130696 C0.975294743,1.7443783 1.51922935,1.09207761 2.21887445,0.655456985 C2.91746744,0.217784263 3.72653072,0 4.64711637,0 C5.56664993,0 6.3767653,0.217784263 7.0753583,0.655456985 C7.7739513,1.09207761 8.318938,1.7443783 8.70926632,2.61130696 C9.09854254,3.47928772 9.29423275,4.55453176 9.29423275,5.83493489 C9.29423275,7.15110935 9.09854254,8.24949954 8.70926632,9.12905338 C8.318938,10.0075551 7.7739513,10.6693247 7.0753583,11.1112058 C6.3767653,11.554139 5.56664993,11.7750796 4.64711637,11.7750796 Z M4.64711637,9.19007506 C4.97326672,9.19007506 5.25312476,9.0669796 5.48563839,8.82289289 C5.71815202,8.57775409 5.89911286,8.20846773 6.0274688,7.71292962 C6.15477265,7.21844361 6.21895062,6.59244537 6.21895062,5.83493489 C6.21895062,5.11319574 6.15477265,4.51034365 6.0274688,4.02743072 C5.89911286,3.54346569 5.71815202,3.18259611 5.48563839,2.94376989 C5.25312476,2.70494367 4.97326672,2.58605661 4.64711637,2.58605661 C4.32096603,2.58605661 4.04110799,2.70494367 3.80859436,2.94376989 C3.57502863,3.18259611 3.39511989,3.54346569 3.26676394,4.02743072 C3.138408,4.51034365 3.07423003,5.11319574 3.07423003,5.83493489 C3.07423003,6.59244537 3.138408,7.21844361 3.26676394,7.71292962 C3.39511989,8.20846773 3.57502863,8.57775409 3.80859436,8.82289289 C4.04110799,9.0669796 4.32096603,9.19007506 4.64711637,9.19007506 Z" id="Shape"></path>
                <path d="M10.9365576,11.5657121 L10.9365576,0.20936748 L13.9760684,0.20936748 L15.8803655,5.27627091 L16.8062117,7.82655619 L16.8767022,7.82655619 C16.8062117,7.21002683 16.7199396,6.50827754 16.6147299,5.72130832 C16.5095201,4.9353912 16.4569152,4.19261009 16.4569152,3.49401709 L16.4569152,0.20936748 L19.3228298,0.20936748 L19.3228298,11.5657121 L16.2822669,11.5657121 L14.3779697,6.48197509 L13.4521236,3.94852338 L13.3826851,3.94852338 C13.4521236,4.58925099 13.5394477,5.29626077 13.6446575,6.07060482 C13.7498673,6.84600096 13.8014201,7.58246948 13.8014201,8.28106248 L13.8014201,11.5657121 L10.9365576,11.5657121 Z" id="Path"></path>
                <polygon id="Path" points="66.0401845 11.5657121 66.0401845 2.72493353 62.7734205 2.72493353 62.7734205 0.20936748 72.3127921 0.20936748 72.3127921 2.72493353 69.044976 2.72493353 69.044976 11.5657121"></polygon>
                <polygon id="Path" points="73.7973022 11.5657121 73.7973022 0.20936748 76.8020938 0.20936748 76.8020938 4.43774889 79.2482214 4.43774889 79.2482214 0.20936748 82.2530129 0.20936748 82.2530129 11.5657121 79.2482214 11.5657121 79.2482214 7.05852473 76.8020938 7.05852473 76.8020938 11.5657121"></polygon>
                <polygon id="Path" points="84.7338597 11.5657121 84.7338597 0.20936748 92.4562582 0.20936748 92.4562582 2.72493353 87.7397034 2.72493353 87.7397034 4.50718735 91.7576652 4.50718735 91.7576652 7.0238055 87.7397034 7.0238055 87.7397034 9.05014604 92.6309065 9.05014604 92.6309065 11.5657121"></polygon>
            </g>
            <g id="Group">
                <polygon id="Path" points="5.84799126 17.3696699 1.92125902 19.578824 0 16.1652109 11.6098098 9.6376306 13.5291104 13.0512437 9.60237814 15.2584393 21.1220984 35.744035 17.365753 37.8552656"></polygon>
                <path d="M25.6990426,4.15783169 L31.9171847,2.70464699 C34.0793355,2.20132022 35.773412,2.33449617 36.9994142,3.1080918 C38.2254164,3.87972896 39.0812678,5.30941202 39.5689268,7.39322404 L39.9508284,9.03442186 C40.599082,11.8056568 40.0937967,13.7739191 38.4349727,14.9392087 L38.4525989,15.0155891 C39.5415082,15.0841355 40.4051934,15.5385005 41.0436546,16.3806426 C41.6840743,17.2247432 42.1874011,18.4350776 42.5555934,20.0096874 L43.6503781,24.7021814 C43.8285989,25.4659847 43.9989858,26.0750689 44.1595803,26.5333508 C44.3201749,26.9935913 44.5551913,27.4264131 44.866588,27.8376918 L40.5932066,28.834553 C40.3405639,28.4389421 40.1447169,28.055082 40.0037071,27.6868896 C39.8646557,27.3167388 39.6786011,26.6351913 39.4475016,25.6442055 L38.3057137,20.7617399 C38.0217355,19.5416131 37.6261246,18.7347235 37.1188809,18.344988 C36.6116372,17.953294 35.8752525,17.8710383 34.9077683,18.0962623 L33.4585005,18.4350776 L36.131812,29.8784175 L31.9367694,30.8576525 L25.6990426,4.15783169 Z M34.0930448,14.2635366 C34.9332284,14.0676896 35.510977,13.7053727 35.8302077,13.1746273 C36.1494383,12.643882 36.1905661,11.8702863 35.9516328,10.8538404 L35.4718077,8.79353005 C35.2446251,7.82800437 34.9097268,7.168 34.4651541,6.81547541 C34.0225399,6.46295082 33.431082,6.37481967 32.6927388,6.54716503 L30.7871475,6.9917377 L32.5673967,14.6199781 L34.0930448,14.2635366 Z" id="Shape"></path>
                <polygon id="Path" points="52.4909115 0.0215431694 56.7995454 0 56.9288044 27.4185792 52.6201705 27.4401224"></polygon>
                <path d="M71.2745967,29.614024 C69.2632481,29.159659 67.8570667,28.2391781 67.0599694,26.8545399 C66.2628721,25.4699016 66.0983607,23.7327388 66.5723104,21.6430514 L69.8194536,7.27963279 C70.2934033,5.18994536 71.1864656,3.69171585 72.5025574,2.78494426 C73.8186492,1.87817268 75.4833486,1.65294863 77.4946973,2.10731366 C79.5080044,2.56167869 80.9122273,3.48215956 81.7093246,4.86679781 C82.5083803,6.25339454 82.6709333,7.99055738 82.1989421,10.0782863 L81.5585224,12.9063169 L77.5867454,12.0073792 L78.2859191,8.91299672 C78.6599869,7.25613115 78.1468678,6.27102077 76.7465617,5.95374863 C75.3442973,5.6364765 74.4571104,6.30627322 74.0830426,7.96118033 L70.704682,22.9003891 C70.3364896,24.5298361 70.8515672,25.5031956 72.2538317,25.8204678 C73.6541377,26.1377399 74.5393661,25.479694 74.9075585,23.850247 L75.8319563,19.7629202 L79.8056918,20.6598995 L78.9498404,24.4436634 C78.4778492,26.5313923 77.5828284,28.0296219 76.2667366,28.9363934 C74.9506448,29.843165 73.2859454,30.0703475 71.2745967,29.614024 Z" id="Path"></path>
                <path d="M90.2482536,36.819235 C88.395541,35.8008306 87.2655038,34.4925727 86.862059,32.8983781 C86.4566557,31.3061421 86.7837202,29.5474361 87.841294,27.626177 L94.7919038,14.9979628 C95.8494776,13.0767038 97.159694,11.860494 98.722553,11.3493333 C100.285412,10.8381727 101.993198,11.0927738 103.84591,12.1131366 C105.698623,13.1334995 106.82866,14.4397989 107.232105,16.0339934 C107.637508,17.6262295 107.310444,19.3849355 106.25287,21.3061945 L99.3022601,33.9344087 C98.2446863,35.8556678 96.9344699,37.0718776 95.3716109,37.5830383 C93.8087519,38.0941989 92.1009661,37.8395978 90.2482536,36.819235 Z M92.1362186,33.3879956 C93.4405596,34.1067541 94.5275104,33.6758907 95.3951126,32.0973639 L102.610116,18.9893246 C103.479677,17.4107978 103.262286,16.2631344 101.957945,15.544376 C100.653604,14.827576 99.5666536,15.2564809 98.6990514,16.8350077 L91.4840481,29.9450055 C90.6144874,31.5215738 90.8318776,32.6711956 92.1362186,33.3879956 Z" id="Shape"></path>
            </g>
        </g>
    </g>
</svg>