<?xml version="1.0" encoding="UTF-8"?>
<svg width="20px" height="21px" viewBox="0 0 20 21" version="1.1" xmlns="http://www.w3.org/2000/svg" xmlns:xlink="http://www.w3.org/1999/xlink">
    <title>Tiktok</title>
    <g id="Symbols" stroke="none" stroke-width="1" fill="none" fill-rule="evenodd">
        <g id="header" transform="translate(-1280.000000, -26.000000)" fill="#13241D" fill-rule="nonzero">
            <g id="Group-10" transform="translate(442.921990, 17.326772)">
                <path d="M857.07801,15.5086627 L857.07801,19.264077 C857.07801,19.6788885 856.735264,20.0151598 856.312465,20.0151598 C854.713309,20.0192803 853.137053,19.6423259 851.719197,18.9167011 L851.719197,22.2684083 C851.719671,26.045592 848.71972,29.1687513 844.876543,29.3920899 C841.033367,29.6154286 837.678605,26.861561 837.224594,23.1107338 C836.770583,19.3599065 839.374636,15.9117609 843.164234,15.2457837 C843.385396,15.20685 843.612825,15.2652077 843.786239,15.4053889 C843.965209,15.5471092 844.067593,15.7618637 844.063749,15.9874781 L844.063749,19.8931089 C844.064583,20.1835584 843.892539,20.4477571 843.623561,20.5690834 C842.768263,20.9687529 842.339694,21.9221986 842.615677,22.8113427 C842.89166,23.700487 843.789139,24.2577419 844.726316,24.1218632 C845.663493,23.9859845 846.358326,23.1978649 846.360384,22.2684083 L846.360384,10.2510828 C846.360384,9.83627125 846.70313,9.5 847.125928,9.5 L850.953652,9.5 C851.376451,9.5 851.719197,9.83627125 851.719197,10.2510828 C851.719197,12.7399525 853.775673,14.7575799 856.312465,14.7575799 C856.5155,14.7575799 856.710219,14.8367116 856.853787,14.977567 C856.997354,15.1184223 857.07801,15.3094632 857.07801,15.5086627 Z" id="Tiktok"></path>
            </g>
        </g>
    </g>
</svg>