<?xml version="1.0" encoding="UTF-8"?>
<svg width="50px" height="50px" viewBox="0 0 50 50" version="1.1" xmlns="http://www.w3.org/2000/svg" xmlns:xlink="http://www.w3.org/1999/xlink">
    <title>Group 2</title>
    <g id="Page-1" stroke="none" stroke-width="1" fill="none" fill-rule="evenodd">
        <g id="Group-2">
            <circle id="Oval" fill="#13241D" cx="25" cy="25" r="25"></circle>
            <g id="info_trico-copy" transform="translate(11.000000, 9.000000)" fill="#FFFFFF" fill-rule="nonzero">
                <g id="Group">
                    <polygon id="Path" points="6.73681691e-25 3.96442619 1.18177551 3.26260996 5.62935972 10.8134006 4.44784422 11.5152168"></polygon>
                    <polygon id="Path" points="6.15901356 1.03914754 7.84080103 0.665524391 10.2742965 5.50304336 10.2987381 5.49782152 9.16922593 0.370490039 10.3634822 0.105220215 12.2504228 8.67087681 10.8733748 8.97687704 7.88734399 3.08115079 7.86290244 3.08663371 9.24047048 9.33953431 8.04621416 9.60480412"></polygon>
                    <polygon id="Path" points="16.3896273 0 19.9742164 0.585369041 19.7740035 1.82242457 17.5441011 1.45820075 17.1535561 3.87043293 18.9026879 4.15606796 18.7024751 5.39312349 16.9530833 5.10748848 16.3420442 8.88027287 14.9868377 8.65886656"></polygon>
                    <path d="M22.4737561,11.0872865 C21.8866386,10.755177 21.5309358,10.3335129 21.4071679,9.82229404 C21.28314,9.31133633 21.392867,8.7499878 21.7358289,8.1385095 L23.989913,4.12003721 C24.3328749,3.50855895 24.7543618,3.12370883 25.2538537,2.96522576 C25.7533456,2.80648163 26.2967804,2.89342537 26.8841579,3.22553484 C27.4712754,3.55764431 27.8267181,3.97930843 27.950746,4.49052726 C28.074514,5.00174608 27.965047,5.56309461 27.6220851,6.17457288 L25.367741,10.1927841 C25.0247791,10.8042624 24.6035522,11.1893736 24.1040603,11.3478566 C23.6043083,11.5063397 23.0608736,11.419657 22.4737561,11.0872865 Z M23.0863552,9.99539827 C23.4995216,10.2290759 23.8469038,10.0948745 24.1287618,9.59253278 L26.4686514,5.42158258 C26.7505094,4.9192409 26.6847252,4.55110068 26.2715588,4.31742303 C25.8583924,4.08374538 25.5107501,4.21794684 25.2288921,4.72028852 L22.8890026,8.89149984 C22.6074046,9.39384152 22.6731888,9.76172062 23.0863552,9.99539827 Z" id="Shape"></path>
                </g>
                <polygon id="Path" points="23.0391241 24.2081289 24.1049322 25.2783465 22.9741962 26.4137605 21.9083881 25.343543"></polygon>
                <polygon id="Path" points="4.8554584 24.2081289 5.98619438 25.343543 4.92038629 26.4137605 3.78965029 25.2783465"></polygon>
                <polygon id="Path" points="17.1447156 27.1836296 17.1447156 28.7893475 10.7498669 28.7893475 10.7498669 27.1836296"></polygon>
                <polygon id="Path" points="16.0789074 30.3942822 16.0789074 32 11.815675 32 11.815675 30.3942822"></polygon>
                <path d="M13.9470312,11.1306278 C9.37581411,11.1306278 6.69272797,13.4573621 6.75299077,17.2969648 C6.77993669,19.0148264 7.31643597,20.2864836 8.49382229,21.5043311 L8.76396986,21.77733 C8.80807962,21.821925 8.85061191,21.8653791 8.89161981,21.9078433 L9.01012349,22.0324174 C9.02912962,22.0527352 9.04776793,22.0728433 9.06604505,22.0927606 L9.17142656,22.2101261 C9.18828546,22.2293558 9.20479646,22.2484325 9.22096618,22.267375 L9.31394225,22.3795717 C9.69955219,22.8600918 9.86343024,23.275474 9.92221293,23.9576915 L9.93396564,24.1200141 C9.9356312,24.1479077 9.93715455,24.1762338 9.93854236,24.2050113 L9.94529552,24.383244 L9.94911383,24.5732167 L9.95031582,24.775836 L9.95031582,25.5786949 L17.9439091,25.5786949 L17.9440066,24.7759339 C17.944015,24.7072309 17.9443506,24.6407738 17.9450722,24.576409 L17.9484534,24.3894378 L17.9545019,24.214098 L17.9635697,24.0494676 C18.0152606,23.2781492 18.1850779,22.849791 18.6517788,22.2958475 L18.7526324,22.1792929 C18.7701669,22.1595172 18.7880691,22.1395538 18.8063463,22.1193834 L18.920568,21.995724 L19.0441415,21.8661752 L19.2478061,21.6587926 L19.3085456,21.5977716 C20.5498949,20.3512868 21.1136969,19.0587421 21.1413318,17.2969572 C21.201595,13.4573275 18.5184675,11.1306278 13.9470312,11.1306278 Z M13.9470312,12.7363457 C17.6782525,12.7363457 19.5876233,14.3920749 19.542428,17.2716618 C19.5214488,18.6091334 19.1302497,19.5059771 18.1776697,20.4624982 L18.0383777,20.6029034 C16.906478,21.753305 16.4777915,22.484229 16.3725284,23.9175344 L16.3685972,23.972789 L11.5242068,23.972789 L11.5184829,23.8925776 C11.4064253,22.4835435 10.9704127,21.7294427 9.89750129,20.6447309 L9.71639481,20.4625002 C8.76396337,19.5061284 8.37287656,18.6093208 8.35189455,17.2716694 C8.30669945,14.3920969 10.2160378,12.7363457 13.9470312,12.7363457 Z" id="Path"></path>
            </g>
        </g>
    </g>
</svg>