<?xml version="1.0" encoding="UTF-8"?>
<svg width="17px" height="17px" viewBox="0 0 17 17" version="1.1" xmlns="http://www.w3.org/2000/svg" xmlns:xlink="http://www.w3.org/1999/xlink">
    <title>link_icn</title>
    <g id="Page-1" stroke="none" stroke-width="1" fill="none" fill-rule="evenodd">
        <g id="À-propos" transform="translate(-616.000000, -2936.000000)">
            <g id="link_icn" transform="translate(616.000000, 2936.000000)">
                <rect id="Rectangle" fill="#F2E8B5" x="0" y="0" width="17" height="17" rx="5"></rect>
                <g id="Group" transform="translate(3.000000, 3.000000)" fill="#13241D" fill-rule="nonzero">
                    <path d="M6.14617317,4.18740421 C6.40649321,3.93753193 6.8282121,3.93753193 7.08853214,4.18740421 C7.672132,4.74822201 8,5.50888853 8,6.30204514 C8,7.09520175 7.672132,7.85586826 7.08853214,8.41668607 L5.31049634,10.1254868 C4.18115915,11.2094397 2.38156933,11.2963811 1.14481682,10.3267382 C-0.0919356892,9.35709535 -0.364729341,7.64535681 0.513355743,6.36441636 C0.719852504,6.07799225 1.126653,6.00265086 1.42911434,6.19481352 C1.73157568,6.38697618 1.81882221,6.77620029 1.62551714,7.07100547 C1.12327158,7.80327558 1.27940325,8.78207247 1.98683386,9.33611726 C2.69426447,9.89016205 3.72326996,9.83953969 4.36813736,9.21896802 L6.14617317,7.51016727 C6.84028623,6.84288083 6.84028623,5.76120945 6.14617317,5.09392301 C5.88617688,4.84373958 5.88617688,4.43844203 6.14617317,4.18825861 L6.14617317,4.18740421 Z" id="Path"></path>
                    <path d="M4.85382683,6.81259579 C4.59350679,7.06246807 4.1717879,7.06246807 3.91146786,6.81259579 C3.327868,6.25177799 3,5.49111147 3,4.69795486 C3,3.90479825 3.327868,3.14413174 3.91146786,2.58331393 L5.68950366,0.874513183 C6.81884085,-0.209439743 8.61843067,-0.296381148 9.85518318,0.673261752 C11.0919357,1.64290465 11.3647293,3.35464319 10.4866443,4.63558364 C10.2801475,4.92200775 9.873347,4.99734914 9.57088566,4.80518648 C9.26842432,4.61302382 9.18117779,4.22379971 9.37448286,3.92899453 C9.87672842,3.19672442 9.72059675,2.21792753 9.01316614,1.66388274 C8.30573553,1.10983795 7.27673004,1.16046031 6.63186264,1.78103198 L4.85382683,3.48983273 C4.15971377,4.15711917 4.15971377,5.23879055 4.85382683,5.90607699 C5.11382312,6.15626042 5.11382312,6.56155797 4.85382683,6.81174139 L4.85382683,6.81259579 Z" id="Path"></path>
                </g>
            </g>
        </g>
    </g>
</svg>